<svg width="84" height="20" viewBox="0 0 84 20" fill="none" xmlns="http://www.w3.org/2000/svg">
<path d="M11.259 0.14418C8.96852 0.272948 6.74578 0.967823 4.79 2.16653C3.35376 3.03476 2.1611 4.25276 1.32344 5.70674C0.485781 7.16072 0.0304554 8.80324 0 10.4808C0.0243814 12.4551 0.55127 14.3907 1.531 16.105C2.3469 17.2895 3.43832 18.2583 4.71146 18.928C5.98459 19.5977 7.40136 19.9483 8.84 19.9498C10.1633 19.9464 11.4729 19.6813 12.6933 19.1698C13.9137 18.6584 15.0208 17.9107 15.951 16.9697C16.1466 16.7929 16.3044 16.5782 16.4147 16.3387C16.5251 16.0992 16.5857 15.8398 16.593 15.5762C16.593 15.3363 16.193 15.1913 15.655 15.5762C14.3814 16.5169 12.8385 17.0224 11.255 17.0177C10.0302 17.0505 8.81705 16.7723 7.72895 16.2092C6.64086 15.6461 5.71331 14.8165 5.033 13.7978C4.15387 12.3516 3.70953 10.6831 3.753 8.99132C3.72396 6.95366 4.46456 4.97998 5.827 3.46411C6.61107 2.56038 7.70161 1.97826 8.889 1.82964C10.568 1.82964 11.408 2.5504 13.037 3.70403C13.6123 4.13257 14.267 4.44279 14.963 4.61674C15.163 4.61674 16.593 3.46311 16.593 2.69436C16.5438 2.13553 16.2779 1.61813 15.852 1.25282C14.4452 0.485761 12.8609 0.103341 11.259 0.14418ZM30.321 0.00022775C27.6476 -0.0167907 25.0558 0.920463 23.012 2.64337C21.89 3.53629 20.9928 4.67959 20.3925 5.98161C19.7922 7.28362 19.5053 8.70814 19.555 10.141C19.6396 11.5497 20.0068 12.927 20.6347 14.191C21.2626 15.455 22.1384 16.5798 23.21 17.4986C25.0638 19.0341 27.374 19.9129 29.78 19.9978C31.9764 20.0441 34.1274 19.3687 35.903 18.0754C37.221 17.1341 38.2976 15.8945 39.0449 14.4579C39.7922 13.0212 40.1891 11.4283 40.203 9.80906C40.2066 8.5142 39.953 7.23152 39.4567 6.03546C38.9605 4.8394 38.2315 3.75379 37.3122 2.84163C36.3929 1.92948 35.3015 1.20895 34.1013 0.721863C32.9012 0.234781 31.6162 -0.00914986 30.321 0.00422617V0.00022775ZM29.38 1.44376C30.948 1.5299 32.4274 2.19838 33.528 3.31816C35.2249 5.38391 36.1036 8.00088 35.997 10.6718C35.9474 12.9682 35.1713 15.1898 33.78 17.0177C33.0179 17.9146 31.9389 18.4829 30.768 18.6042C28.398 18.6042 25.583 16.8738 24.348 13.2689C23.9309 11.8822 23.7308 10.4392 23.755 8.99132C23.7403 6.70587 24.607 4.50262 26.175 2.83931C27.0532 2.02287 28.1839 1.53054 29.38 1.44376ZM55.059 0.14418C52.7689 0.271736 50.5462 0.965231 48.59 2.16253C47.1538 3.03076 45.9611 4.24876 45.1234 5.70274C44.2858 7.15672 43.8305 8.79924 43.8 10.4768C43.8246 12.4508 44.3514 14.3859 45.331 16.1C46.1469 17.2845 47.2383 18.2533 48.5115 18.923C49.7846 19.5927 51.2014 19.9433 52.64 19.9448C53.9633 19.9414 55.2729 19.6763 56.4933 19.1648C57.7137 18.6534 58.8208 17.9057 59.751 16.9647C59.9467 16.7879 60.1044 16.5732 60.2147 16.3337C60.3251 16.0942 60.3857 15.8348 60.393 15.5712C60.393 15.3313 59.993 15.1863 59.455 15.5712C58.1814 16.5119 56.6385 17.0174 55.055 17.0127C53.8302 17.0455 52.6171 16.7673 51.529 16.2042C50.4409 15.6411 49.5133 14.8115 48.833 13.7928C47.9525 12.347 47.5067 10.6785 47.549 8.98633C47.52 6.94866 48.2606 4.97498 49.623 3.45911C50.4071 2.55538 51.4976 1.97326 52.685 1.82464C54.364 1.82464 55.204 2.5454 56.833 3.69903C57.4083 4.12757 58.063 4.43779 58.759 4.61174C58.959 4.61174 60.389 3.45811 60.389 2.68936C60.3398 2.13053 60.0739 1.61313 59.648 1.24782C58.2428 0.483697 56.6611 0.103047 55.062 0.14418H55.059ZM74.121 0.00022775C71.4486 -0.0160755 68.858 0.921135 66.815 2.64337C65.693 3.53629 64.7958 4.67959 64.1955 5.98161C63.5952 7.28362 63.3083 8.70814 63.358 10.141C63.4425 11.5496 63.8095 12.9269 64.4372 14.1909C65.0649 15.4549 65.9406 16.5797 67.012 17.4986C68.8653 19.0337 71.1747 19.9125 73.58 19.9978C75.7764 20.0441 77.9274 19.3687 79.703 18.0754C81.021 17.1341 82.0976 15.8945 82.8449 14.4579C83.5922 13.0212 83.9891 11.4283 84.003 9.80906C84.0066 8.51437 83.753 7.23186 83.2569 6.03593C82.7608 4.84 82.032 3.75448 81.1129 2.84235C80.1938 1.93022 79.1026 1.20965 77.9027 0.722447C76.7028 0.235245 75.418 -0.00888336 74.123 0.00422617L74.121 0.00022775ZM73.185 1.44376C74.753 1.5299 76.2323 2.19838 77.333 3.31816C79.0299 5.38391 79.9086 8.00088 79.802 10.6718C79.751 12.9687 78.9731 15.1904 77.58 17.0177C76.8179 17.9146 75.7389 18.4829 74.568 18.6042C72.198 18.6042 69.383 16.8738 68.148 13.2689C67.7309 11.8822 67.5308 10.4392 67.555 8.99132C67.5427 6.70655 68.4112 4.50483 69.98 2.84331C70.8576 2.02541 71.9884 1.53164 73.185 1.44376Z" fill="white"/>
</svg>
