<svg width="26" height="26" viewBox="0 0 26 26" fill="none" xmlns="http://www.w3.org/2000/svg">
<path fill-rule="evenodd" clip-rule="evenodd" d="M0.000976562 0.754577C0.00698869 0.548424 0.092446 0.353163 0.238559 0.211725C0.384672 0.0702873 0.579478 -0.00574726 0.780146 0.00033918H4.93805C5.20132 -0.00517966 5.4585 0.0820276 5.66684 0.247466C5.87519 0.412905 6.02215 0.646611 6.0833 0.909741L7.11752 5.91196H24.8384C25.0051 5.90564 25.1712 5.93764 25.3244 6.00563C25.4776 6.07362 25.6141 6.17589 25.7239 6.30497C25.8337 6.43406 25.9141 6.5867 25.9592 6.75177C26.0044 6.91684 26.013 7.09016 25.9846 7.25911L24.0562 16.8772C23.9764 17.2301 23.7808 17.544 23.5023 17.7663C23.2239 17.9886 22.8794 18.1057 22.5269 18.0979H9.21198C8.85828 18.1056 8.51285 17.9876 8.23404 17.7638C7.95522 17.5401 7.76011 17.2244 7.68165 16.87L5.71422 6.81006L4.61398 1.50882H0.780146C0.579478 1.5149 0.384672 1.43887 0.238559 1.29743C0.092446 1.15599 0.00698869 0.960731 0.000976562 0.754577ZM7.41859 7.41941L9.21198 16.5895H22.5269L24.3663 7.41941H7.41859Z" fill="#333333"/>
<path d="M12.2799 23.6761C12.2799 24.1357 12.1472 24.585 11.8987 24.9671C11.6502 25.3492 11.297 25.6471 10.8837 25.823C10.4705 25.9989 10.0157 26.045 9.57693 25.9554C9.13818 25.8658 8.73512 25.6446 8.41874 25.3197C8.10235 24.9948 7.88684 24.5808 7.79945 24.1301C7.71205 23.6794 7.75671 23.2122 7.92776 22.7875C8.09881 22.3629 8.38858 21.9999 8.76043 21.7444C9.13229 21.4889 9.56952 21.3525 10.0169 21.3523C10.314 21.3521 10.6082 21.4121 10.8828 21.5289C11.1574 21.6456 11.4068 21.8167 11.617 22.0326C11.8271 22.2484 11.9938 22.5046 12.1076 22.7866C12.2213 23.0686 12.2799 23.3709 12.2799 23.6761Z" fill="#333333"/>
<path d="M24.065 23.6761C24.065 24.1357 23.9324 24.585 23.6839 24.9671C23.4354 25.3492 23.0821 25.6471 22.6689 25.823C22.2556 25.9989 21.8008 26.045 21.3621 25.9554C20.9233 25.8658 20.5203 25.6446 20.2039 25.3197C19.8875 24.9948 19.672 24.5808 19.5846 24.1301C19.4972 23.6794 19.5419 23.2122 19.7129 22.7875C19.884 22.3629 20.1737 21.9999 20.5456 21.7444C20.9174 21.4889 21.3547 21.3525 21.802 21.3523C22.0992 21.3521 22.3934 21.4121 22.668 21.5289C22.9425 21.6456 23.192 21.8167 23.4021 22.0326C23.6123 22.2484 23.779 22.5046 23.8927 22.7866C24.0065 23.0686 24.065 23.3709 24.065 23.6761Z" fill="#333333"/>
</svg>
