<svg width="85" height="22" viewBox="0 0 85 22" fill="none" xmlns="http://www.w3.org/2000/svg">
<path d="M11.3923 0.752498C9.06777 0.887545 6.81552 1.61008 4.84627 2.8525C3.38174 3.77473 2.17111 5.04859 1.32456 6.55812C0.478013 8.06766 0.0224261 9.76494 -0.000732422 11.4955C0.0224954 13.5428 0.554823 15.5522 1.54827 17.3425C2.3581 18.5659 3.45696 19.571 4.74766 20.2686C6.03835 20.9663 7.4811 21.3351 8.94827 21.3425C10.2951 21.3361 11.6269 21.0583 12.8639 20.5257C14.101 19.993 15.218 19.2165 16.1483 18.2425C16.3474 18.0562 16.5075 17.8322 16.6191 17.5834C16.7307 17.3346 16.7916 17.0661 16.7983 16.7935C16.7983 16.5435 16.3983 16.3935 15.8493 16.7935C14.5715 17.7676 13.009 18.2947 11.4023 18.2935C10.1524 18.3232 8.91603 18.0306 7.81209 17.4439C6.70815 16.8571 5.77388 15.996 5.09927 14.9435C4.20485 13.432 3.75431 11.6992 3.79927 9.9435C3.76833 7.83651 4.51611 5.79223 5.89927 4.2025C6.68297 3.26727 7.78937 2.66054 8.99927 2.5025C10.6993 2.5025 11.5473 3.2525 13.1993 4.4515C13.7785 4.89575 14.4414 5.21853 15.1483 5.4005C15.3483 5.4005 16.7973 4.2005 16.7973 3.4005C16.7493 2.8227 16.4807 2.28555 16.0473 1.9005C14.63 1.10605 13.0245 0.709075 11.4003 0.751497L11.3923 0.752498ZM30.6803 0.602497C27.9617 0.589442 25.3314 1.56623 23.2803 3.3505C22.1363 4.29388 21.2253 5.48845 20.6183 6.84128C20.0113 8.19412 19.7245 9.66876 19.7803 11.1505C19.8624 12.6058 20.2316 14.0305 20.8666 15.3426C21.5016 16.6546 22.3899 17.8281 23.4803 18.7955C25.3396 20.3858 27.6814 21.3019 30.1263 21.3955C32.3585 21.4417 34.5417 20.7374 36.3263 19.3955C37.6692 18.3994 38.7613 17.1039 39.5159 15.6119C40.2705 14.1199 40.6668 12.4725 40.6733 10.8005C40.6956 9.47249 40.4538 8.15328 39.962 6.9195C39.4701 5.68572 38.7381 4.56197 37.8083 3.6135C36.8789 2.66444 35.7701 1.90953 34.5465 1.39264C33.3228 0.87574 32.0086 0.607159 30.6803 0.602497ZM29.7313 2.1025C31.3279 2.1955 32.8294 2.89227 33.9313 4.0515C35.6548 6.21738 36.5421 8.93076 36.4313 11.6965C36.3831 14.0763 35.5973 16.3825 34.1823 18.2965C33.4198 19.2235 32.3238 19.8139 31.1303 19.9405C28.7303 19.9405 25.8833 18.1405 24.6303 14.3935C24.2079 12.9497 24.0057 11.4506 24.0303 9.9465C24.0096 7.58053 24.8844 5.29426 26.4793 3.5465C27.3626 2.70193 28.5124 2.19136 29.7313 2.1025ZM55.7153 0.752498C53.3908 0.887545 51.1385 1.61008 49.1693 2.8525C47.7045 3.77491 46.4937 5.04909 45.6471 6.559C44.8005 8.06891 44.3451 9.7666 44.3223 11.4975C44.3458 13.5441 44.8781 15.5528 45.8713 17.3425C46.6811 18.5659 47.78 19.571 49.0707 20.2686C50.3614 20.9663 51.8041 21.3351 53.2713 21.3425C54.6181 21.3361 55.9499 21.0583 57.1869 20.5257C58.424 19.993 59.541 19.2165 60.4713 18.2425C60.6704 18.0562 60.8304 17.8322 60.9421 17.5834C61.0537 17.3346 61.1146 17.0661 61.1213 16.7935C61.1213 16.5435 60.7213 16.3935 60.1723 16.7935C58.8945 17.7676 57.332 18.2947 55.7253 18.2935C54.4761 18.3229 53.2405 18.0304 52.1371 17.444C51.0338 16.8577 50.0999 15.9972 49.4253 14.9455C48.5308 13.434 48.0803 11.7012 48.1253 9.9455C48.0929 7.83645 48.8407 5.78977 50.2253 4.1985C51.009 3.26327 52.1154 2.65654 53.3253 2.4985C55.0253 2.4985 55.8733 3.2485 57.5253 4.4475C58.1045 4.89175 58.7674 5.21453 59.4743 5.3965C59.6743 5.3965 61.1233 4.1965 61.1233 3.3965C61.0753 2.8187 60.8067 2.28155 60.3733 1.8965C58.956 1.10205 57.3505 0.705075 55.7263 0.747497L55.7153 0.752498ZM74.9993 0.602497C72.2807 0.589442 69.6504 1.56623 67.5993 3.3505C66.4553 4.29388 65.5443 5.48845 64.9373 6.84128C64.3303 8.19412 64.0435 9.66876 64.0993 11.1505C64.1814 12.6058 64.5506 14.0305 65.1856 15.3426C65.8206 16.6546 66.7089 17.8281 67.7993 18.7955C69.6586 20.3858 72.0004 21.3019 74.4453 21.3955C76.6775 21.4417 78.8607 20.7374 80.6453 19.3955C81.9901 18.3998 83.0839 17.104 83.8398 15.6112C84.5957 14.1184 84.9927 12.4698 84.9993 10.7965C85.0216 9.46849 84.7798 8.14928 84.288 6.9155C83.7961 5.68172 83.0641 4.55796 82.1343 3.6095C81.2037 2.66032 80.0937 1.90567 78.8688 1.38944C77.6439 0.873214 76.3285 0.60571 74.9993 0.602497ZM74.0503 2.1025C75.6469 2.1955 77.1484 2.89227 78.2503 4.0515C79.9738 6.21738 80.8611 8.93076 80.7503 11.6965C80.7021 14.0763 79.9163 16.3825 78.5013 18.2965C77.7398 19.2225 76.6454 19.8129 75.4533 19.9405C73.0533 19.9405 70.2063 18.1405 68.9533 14.3935C68.5309 12.9497 68.3287 11.4506 68.3533 9.9465C68.3326 7.58053 69.2074 5.29426 70.8023 3.5465C71.6856 2.70193 72.8354 2.19136 74.0543 2.1025H74.0503Z" fill="#333333"/>
</svg>
