<svg width="84" height="20" viewBox="0 0 84 20" fill="none" xmlns="http://www.w3.org/2000/svg">
<path d="M11.259 0.144227C8.96852 0.273036 6.74578 0.968136 4.79 2.16723C3.35376 3.03574 2.1611 4.25414 1.32344 5.70859C0.485781 7.16304 0.0304554 8.80608 0 10.4842C0.0243814 12.4591 0.55127 14.3953 1.531 16.1102C2.3469 17.2951 3.43832 18.2642 4.71146 18.9341C5.98459 19.604 7.40136 19.9548 8.84 19.9562C10.1633 19.9528 11.4729 19.6876 12.6933 19.176C13.9137 18.6644 15.0208 17.9165 15.951 16.9752C16.1466 16.7983 16.3044 16.5836 16.4147 16.344C16.5251 16.1044 16.5857 15.8449 16.593 15.5812C16.593 15.3412 16.193 15.1962 15.655 15.5812C14.3814 16.5222 12.8385 17.0279 11.255 17.0232C10.0302 17.056 8.81705 16.7778 7.72895 16.2145C6.64086 15.6512 5.71331 14.8213 5.033 13.8022C4.15387 12.3556 3.70953 10.6865 3.753 8.99423C3.72396 6.95591 4.46456 4.98158 5.827 3.46523C6.61107 2.56121 7.70161 1.9789 8.889 1.83023C10.568 1.83023 11.408 2.55123 13.037 3.70523C13.6123 4.1339 14.267 4.44422 14.963 4.61823C15.163 4.61823 16.593 3.46423 16.593 2.69523C16.5438 2.13622 16.2779 1.61865 15.852 1.25323C14.4452 0.485918 12.8609 0.103374 11.259 0.144227ZM30.321 0.000227823C27.6476 -0.0167961 25.0558 0.92076 23.012 2.64423C21.89 3.53744 20.9928 4.6811 20.3925 5.98354C19.7922 7.28598 19.5053 8.71095 19.555 10.1442C19.6396 11.5534 20.0068 12.9312 20.6347 14.1956C21.2626 15.46 22.1384 16.5852 23.21 17.5042C25.0638 19.0403 27.374 19.9193 29.78 20.0042C31.9764 20.0505 34.1274 19.375 35.903 18.0812C37.221 17.1396 38.2976 15.8996 39.0449 14.4625C39.7922 13.0254 40.1891 11.432 40.203 9.81223C40.2066 8.51695 39.953 7.23386 39.4567 6.03741C38.9605 4.84097 38.2315 3.755 37.3122 2.84255C36.3929 1.9301 35.3015 1.20934 34.1013 0.722096C32.9012 0.234857 31.6162 -0.00915281 30.321 0.00422753V0.000227823ZM29.38 1.44423C30.948 1.5304 32.4274 2.19909 33.528 3.31923C35.2249 5.38565 36.1036 8.00347 35.997 10.6752C35.9474 12.9723 35.1713 15.1947 33.78 17.0232C33.0179 17.9204 31.9389 18.4889 30.768 18.6102C28.398 18.6102 25.583 16.8792 24.348 13.2732C23.9309 11.886 23.7308 10.4426 23.755 8.99423C23.7403 6.70803 24.607 4.50407 26.175 2.84023C27.0532 2.02352 28.1839 1.53103 29.38 1.44423ZM55.059 0.144227C52.7689 0.271824 50.5462 0.965542 48.59 2.16323C47.1538 3.03174 45.9611 4.25013 45.1234 5.70459C44.2858 7.15904 43.8305 8.80208 43.8 10.4802C43.8246 12.4548 44.3514 14.3906 45.331 16.1052C46.1469 17.2901 47.2383 18.2592 48.5115 18.9291C49.7846 19.599 51.2014 19.9498 52.64 19.9512C53.9633 19.9478 55.2729 19.6826 56.4933 19.171C57.7137 18.6594 58.8208 17.9115 59.751 16.9702C59.9467 16.7933 60.1044 16.5786 60.2147 16.339C60.3251 16.0994 60.3857 15.8399 60.393 15.5762C60.393 15.3362 59.993 15.1912 59.455 15.5762C58.1814 16.5172 56.6385 17.0229 55.055 17.0182C53.8302 17.051 52.6171 16.7728 51.529 16.2095C50.4409 15.6462 49.5133 14.8163 48.833 13.7972C47.9525 12.351 47.5067 10.6819 47.549 8.98923C47.52 6.95091 48.2606 4.97658 49.623 3.46023C50.4071 2.55621 51.4976 1.9739 52.685 1.82523C54.364 1.82523 55.204 2.54623 56.833 3.70023C57.4083 4.1289 58.063 4.43922 58.759 4.61323C58.959 4.61323 60.389 3.45923 60.389 2.69023C60.3398 2.13122 60.0739 1.61365 59.648 1.24823C58.2428 0.483853 56.6611 0.10308 55.062 0.144227H55.059ZM74.121 0.000227823C71.4486 -0.0160807 68.858 0.921432 66.815 2.64423C65.693 3.53744 64.7958 4.6811 64.1955 5.98354C63.5952 7.28598 63.3083 8.71095 63.358 10.1442C63.4425 11.5533 63.8095 12.9311 64.4372 14.1955C65.0649 15.4599 65.9406 16.5851 67.012 17.5042C68.8653 19.0398 71.1747 19.9189 73.58 20.0042C75.7764 20.0505 77.9274 19.375 79.703 18.0812C81.021 17.1396 82.0976 15.8996 82.8449 14.4625C83.5922 13.0254 83.9891 11.432 84.003 9.81223C84.0066 8.51713 83.753 7.23419 83.2569 6.03788C82.7608 4.84157 82.032 3.75569 81.1129 2.84327C80.1938 1.93084 79.1026 1.21004 77.9027 0.72268C76.7028 0.235321 75.418 -0.00888623 74.123 0.00422753L74.121 0.000227823ZM73.185 1.44423C74.753 1.5304 76.2323 2.19909 77.333 3.31923C79.0299 5.38565 79.9086 8.00347 79.802 10.6752C79.751 12.9729 78.9731 15.1953 77.58 17.0232C76.8179 17.9204 75.7389 18.4889 74.568 18.6102C72.198 18.6102 69.383 16.8792 68.148 13.2732C67.7309 11.886 67.5308 10.4426 67.555 8.99423C67.5427 6.70872 68.4112 4.50629 69.98 2.84423C70.8576 2.02606 71.9884 1.53214 73.185 1.44423Z" fill="white"/>
</svg>
