<svg width="24" height="24" viewBox="0 0 24 24" fill="none" xmlns="http://www.w3.org/2000/svg">
<path fill-rule="evenodd" clip-rule="evenodd" d="M-0.00146484 0.671714C0.00760413 0.484889 0.0883916 0.309372 0.223201 0.183611C0.35801 0.0578502 0.535849 -0.0079017 0.717763 0.000758834H4.55698C4.79628 -0.00717951 5.03114 0.0684657 5.22318 0.215339C5.41523 0.362213 5.55311 0.571634 5.61431 0.809399L6.56861 5.25846H22.9278C23.0786 5.24918 23.2296 5.27477 23.3696 5.33337C23.5095 5.39196 23.6349 5.48205 23.7364 5.59701C23.838 5.71198 23.9131 5.84888 23.9564 5.99763C23.9996 6.14638 24.0097 6.30319 23.9861 6.45652L22.2056 15.0115C22.1256 15.3304 21.9422 15.6118 21.6856 15.8093C21.429 16.0067 21.1146 16.1084 20.7941 16.0975H8.50123C8.17953 16.1081 7.86402 16.0052 7.60721 15.8059C7.3504 15.6066 7.16779 15.323 7.08978 15.0022L5.2732 6.05682L4.26188 1.34164H0.717763C0.536014 1.35031 0.358319 1.2847 0.223539 1.15915C0.0887582 1.03361 0.00785978 0.858357 -0.00146484 0.671714ZM6.8467 6.60037L8.50123 14.7556H20.7931L22.4937 6.59934L6.8467 6.60037Z" fill="#333333"/>
<path d="M11.5572 21.6758C11.5572 22.1354 11.4245 22.5848 11.1759 22.9669C10.9273 23.3491 10.574 23.647 10.1606 23.823C9.74719 23.9989 9.29228 24.045 8.85339 23.9554C8.41449 23.8658 8.01131 23.6446 7.69483 23.3196C7.37834 22.9947 7.16276 22.5806 7.07534 22.1299C6.98792 21.6791 7.03258 21.2118 7.20369 20.7871C7.3748 20.3624 7.66466 19.9993 8.03663 19.7438C8.4086 19.4883 8.84597 19.3518 9.29345 19.3516C9.59068 19.3515 9.88503 19.4115 10.1597 19.5282C10.4343 19.645 10.6839 19.8161 10.8941 20.032C11.1043 20.2478 11.2711 20.5041 11.3848 20.7861C11.4986 21.0682 11.5572 21.3705 11.5572 21.6758Z" fill="#333333"/>
<path d="M22.0655 21.6758C22.0655 22.1354 21.9328 22.5848 21.6842 22.9669C21.4356 23.3491 21.0823 23.647 20.6689 23.823C20.2555 23.9989 19.8006 24.045 19.3617 23.9554C18.9228 23.8658 18.5196 23.6446 18.2031 23.3196C17.8866 22.9947 17.6711 22.5806 17.5836 22.1299C17.4962 21.6791 17.5409 21.2118 17.712 20.7871C17.8831 20.3624 18.173 19.9993 18.5449 19.7438C18.9169 19.4883 19.3543 19.3518 19.8018 19.3516C20.099 19.3515 20.3933 19.4115 20.668 19.5282C20.9426 19.645 21.1922 19.8161 21.4024 20.032C21.6126 20.2478 21.7794 20.5041 21.8931 20.7861C22.0069 21.0682 22.0655 21.3705 22.0655 21.6758Z" fill="#333333"/>
</svg>
