<svg width="70" height="18" viewBox="0 0 70 18" fill="none" xmlns="http://www.w3.org/2000/svg">
<path d="M9.38446 0.560711C7.47023 0.671468 5.61539 1.26601 3.99346 2.28871C2.78697 3.04832 1.78968 4.0977 1.09244 5.34129C0.395194 6.58487 0.0201502 7.98313 0.00146484 9.40871C0.0207088 11.0947 0.459218 12.7494 1.27746 14.2237C1.94421 15.2303 2.8486 16.0572 3.91074 16.6314C4.97289 17.2055 6.16009 17.5092 7.36746 17.5157C8.47592 17.5103 9.57193 17.2816 10.5901 16.8433C11.6082 16.405 12.5276 15.7661 13.2935 14.9647C13.4574 14.8113 13.5891 14.6268 13.6809 14.422C13.7728 14.2172 13.8229 13.9961 13.8285 13.7717C13.8285 13.5657 13.4995 13.4427 13.0465 13.7717C11.9942 14.5738 10.7075 15.0077 9.38446 15.0067C8.35654 15.0295 7.34001 14.7877 6.43242 14.3045C5.52482 13.8214 4.7566 13.1131 4.20147 12.2477C3.46586 11.0053 3.0944 9.58112 3.12947 8.13771C3.10255 6.40131 3.71793 4.71615 4.85746 3.40571C5.50238 2.63594 6.41277 2.13632 7.40846 2.00571C8.80847 2.00571 9.50846 2.62271 10.8655 3.60571C11.3409 3.97113 11.885 4.23708 12.4655 4.38771C12.6305 4.38771 13.8235 3.39971 13.8235 2.74171C13.784 2.26608 13.5631 1.82385 13.2065 1.50671C12.0407 0.853364 10.7204 0.526553 9.38446 0.560711ZM25.2685 0.43771C23.0311 0.427965 20.8666 1.23229 19.1785 2.70071C18.2371 3.47739 17.4875 4.46064 16.9878 5.57408C16.4882 6.68751 16.2519 7.90115 16.2975 9.12071C16.3642 10.3198 16.6676 11.4938 17.1902 12.5751C17.7128 13.6564 18.4443 14.6235 19.3425 15.4207C20.8738 16.7299 22.8022 17.4839 24.8155 17.5607C26.6517 17.5977 28.4473 17.0182 29.9155 15.9147C31.0214 15.0945 31.9208 14.0277 32.5423 12.799C33.1638 11.5703 33.4901 10.2136 33.4955 8.83671C33.5138 7.74297 33.3146 6.65649 32.9094 5.64038C32.5043 4.62427 31.9013 3.6988 31.1355 2.91771C30.3705 2.13646 29.4579 1.51493 28.4507 1.0892C27.4436 0.663473 26.3619 0.442024 25.2685 0.43771ZM24.4865 1.67271C25.8001 1.74809 27.0359 2.32007 27.9435 3.27271C29.3635 5.05757 30.094 7.29375 30.0015 9.57271C29.9612 11.5314 29.3141 13.4293 28.1495 15.0047C27.5231 15.7689 26.6218 16.2565 25.6395 16.3627C23.6645 16.3627 21.3185 14.8817 20.2895 11.7947C19.9417 10.6058 19.7752 9.37127 19.7955 8.13271C19.7791 6.18561 20.4992 4.30426 21.8115 2.86571C22.5375 2.16945 23.4833 1.74765 24.4865 1.67271ZM45.8865 0.56171C43.9722 0.672467 42.1174 1.26701 40.4955 2.28971C39.2887 3.04899 38.2911 4.09812 37.5936 5.34152C36.896 6.58493 36.5205 7.98311 36.5015 9.40871C36.5207 11.0947 36.9592 12.7494 37.7775 14.2237C38.4442 15.2303 39.3486 16.0572 40.4107 16.6314C41.4729 17.2055 42.6601 17.5092 43.8675 17.5157C44.9759 17.5103 46.0719 17.2816 47.0901 16.8433C48.1082 16.405 49.0276 15.7661 49.7935 14.9647C49.9574 14.8113 50.0891 14.6268 50.1809 14.422C50.2728 14.2172 50.3229 13.9961 50.3285 13.7717C50.3285 13.5657 49.9995 13.4427 49.5465 13.7717C48.4942 14.5738 47.2075 15.0077 45.8845 15.0067C44.8565 15.0295 43.84 14.7877 42.9324 14.3045C42.0248 13.8214 41.2566 13.1131 40.7015 12.2477C39.9657 11.0037 39.5948 9.57762 39.6315 8.13271C39.6046 6.39631 40.2199 4.71115 41.3595 3.40071C42.0044 2.63094 42.9148 2.13132 43.9105 2.00071C45.3105 2.00071 46.0105 2.61771 47.3675 3.60071C47.8429 3.96613 48.3871 4.23208 48.9675 4.38271C49.1325 4.38271 50.3255 3.39471 50.3255 2.73671C50.286 2.26108 50.0651 1.81885 49.7085 1.50171C48.542 0.849931 47.2212 0.524848 45.8855 0.560711L45.8865 0.56171ZM61.7705 0.43771C59.5331 0.427965 57.3686 1.23229 55.6805 2.70071C54.7391 3.47739 53.9895 4.46064 53.4898 5.57408C52.9902 6.68751 52.7539 7.90115 52.7995 9.12071C52.8662 10.3198 53.1696 11.4938 53.6922 12.5751C54.2148 13.6564 54.9463 14.6235 55.8445 15.4207C57.3758 16.7299 59.3042 17.4839 61.3175 17.5607C63.1537 17.5977 64.9493 17.0182 66.4175 15.9147C67.5234 15.0945 68.4228 14.0277 69.0443 12.799C69.6658 11.5703 69.9921 10.2136 69.9975 8.83671C70.0158 7.74297 69.8166 6.65649 69.4114 5.64038C69.0063 4.62427 68.4033 3.6988 67.6375 2.91771C66.8725 2.13646 65.9599 1.51493 64.9527 1.0892C63.9456 0.663473 62.8639 0.442024 61.7705 0.43771ZM60.9885 1.67271C62.3021 1.74809 63.5379 2.32007 64.4455 3.27271C65.8655 5.05757 66.596 7.29375 66.5035 9.57271C66.4632 11.5314 65.8161 13.4293 64.6515 15.0047C64.0251 15.7689 63.1238 16.2565 62.1415 16.3627C60.1665 16.3627 57.8205 14.8817 56.7915 11.7947C56.4456 10.6072 56.2804 9.37439 56.3015 8.13771C56.2851 6.19061 57.0052 4.30926 58.3175 2.87071C59.0435 2.17445 59.9893 1.75265 60.9925 1.67771L60.9885 1.67271Z" fill="#333333"/>
</svg>
